STARTFONT 2.1
FONT Nexus
SIZE 10 75 75
FONTBOUNDINGBOX 5 10 0 0
COMMENT "Generated by fontforge, http://fontforge.sourceforge.net"
STARTPROPERTIES 20
FONTNAME_REGISTRY ""
FOUNDRY "Misc"
FAMILY_NAME "Nexus"
WEIGHT_NAME "Medium"
SLANT "R"
SETWIDTH_NAME "Normal"
ADD_STYLE_NAME ""
PIXEL_SIZE 10
POINT_SIZE 100
RESOLUTION_X 75
RESOLUTION_Y 75
SPACING "C"
AVERAGE_WIDTH 60
CHARSET_REGISTRY "ISO8859"
CHARSET_ENCODING "1"
COPYRIGHT "Bugger off with the Copyright"
WEIGHT 10
RESOLUTION 103
X_HEIGHT 10
QUAD_WIDTH 5
ENDPROPERTIES
CHARS 256
STARTCHAR C000
ENCODING 0
SWIDTH 576 0
DWIDTH 5 0
BBX 1 1 4 0
BITMAP
00
ENDCHAR
STARTCHAR C001
ENCODING 1
SWIDTH 576 0
DWIDTH 5 0
BBX 5 8 0 1
BITMAP
70
88
D8
88
F8
A8
88
70
ENDCHAR
STARTCHAR C002
ENCODING 2
SWIDTH 576 0
DWIDTH 5 0
BBX 5 8 0 1
BITMAP
70
F8
A8
F8
88
D8
F8
70
ENDCHAR
STARTCHAR C003
ENCODING 3
SWIDTH 576 0
DWIDTH 5 0
BBX 5 5 0 2
BITMAP
D8
F8
F8
70
20
ENDCHAR
STARTCHAR C004
ENCODING 4
SWIDTH 576 0
DWIDTH 5 0
BBX 5 5 0 2
BITMAP
20
70
F8
70
20
ENDCHAR
STARTCHAR C005
ENCODING 5
SWIDTH 576 0
DWIDTH 5 0
BBX 5 7 0 2
BITMAP
70
70
F8
F8
A8
20
70
ENDCHAR
STARTCHAR C006
ENCODING 6
SWIDTH 576 0
DWIDTH 5 0
BBX 5 6 0 2
BITMAP
20
70
F8
F8
A8
70
ENDCHAR
STARTCHAR C007
ENCODING 7
SWIDTH 576 0
DWIDTH 5 0
BBX 1 1 4 0
BITMAP
00
ENDCHAR
STARTCHAR C008
ENCODING 8
SWIDTH 576 0
DWIDTH 5 0
BBX 1 1 4 0
BITMAP
00
ENDCHAR
STARTCHAR C009
ENCODING 9
SWIDTH 576 0
DWIDTH 5 0
BBX 1 1 4 0
BITMAP
00
ENDCHAR
STARTCHAR C010
ENCODING 10
SWIDTH 576 0
DWIDTH 5 0
BBX 1 1 4 0
BITMAP
00
ENDCHAR
STARTCHAR C011
ENCODING 11
SWIDTH 576 0
DWIDTH 5 0
BBX 1 1 4 0
BITMAP
00
ENDCHAR
STARTCHAR C012
ENCODING 12
SWIDTH 576 0
DWIDTH 5 0
BBX 1 1 4 0
BITMAP
00
ENDCHAR
STARTCHAR C013
ENCODING 13
SWIDTH 576 0
DWIDTH 5 0
BBX 1 1 4 0
BITMAP
00
ENDCHAR
STARTCHAR C014
ENCODING 14
SWIDTH 576 0
DWIDTH 5 0
BBX 2 3 1 4
BITMAP
C0
C0
C0
ENDCHAR
STARTCHAR C015
ENCODING 15
SWIDTH 576 0
DWIDTH 5 0
BBX 1 1 4 0
BITMAP
00
ENDCHAR
STARTCHAR C016
ENCODING 16
SWIDTH 576 0
DWIDTH 5 0
BBX 1 1 4 0
BITMAP
00
ENDCHAR
STARTCHAR C017
ENCODING 17
SWIDTH 576 0
DWIDTH 5 0
BBX 3 5 1 3
BITMAP
80
C0
E0
C0
80
ENDCHAR
STARTCHAR C018
ENCODING 18
SWIDTH 576 0
DWIDTH 5 0
BBX 3 5 1 3
BITMAP
20
60
E0
60
20
ENDCHAR
STARTCHAR C019
ENCODING 19
SWIDTH 576 0
DWIDTH 5 0
BBX 3 8 1 2
BITMAP
40
C0
40
40
40
40
E0
40
ENDCHAR
STARTCHAR C020
ENCODING 20
SWIDTH 576 0
DWIDTH 5 0
BBX 3 8 1 2
BITMAP
A0
A0
A0
A0
A0
00
A0
A0
ENDCHAR
STARTCHAR C021
ENCODING 21
SWIDTH 576 0
DWIDTH 5 0
BBX 4 6 0 2
BITMAP
F0
D0
50
50
50
50
ENDCHAR
STARTCHAR C022
ENCODING 22
SWIDTH 576 0
DWIDTH 5 0
BBX 4 7 0 2
BITMAP
70
90
60
90
60
90
E0
ENDCHAR
STARTCHAR C023
ENCODING 23
SWIDTH 576 0
DWIDTH 5 0
BBX 4 2 0 2
BITMAP
F0
F0
ENDCHAR
STARTCHAR C024
ENCODING 24
SWIDTH 576 0
DWIDTH 5 0
BBX 4 7 0 2
BITMAP
20
70
20
20
70
20
F0
ENDCHAR
STARTCHAR C025
ENCODING 25
SWIDTH 576 0
DWIDTH 5 0
BBX 1 1 4 0
BITMAP
00
ENDCHAR
STARTCHAR C026
ENCODING 26
SWIDTH 576 0
DWIDTH 5 0
BBX 3 4 1 3
BITMAP
40
40
E0
40
ENDCHAR
STARTCHAR C027
ENCODING 27
SWIDTH 576 0
DWIDTH 5 0
BBX 1 1 4 0
BITMAP
00
ENDCHAR
STARTCHAR C028
ENCODING 28
SWIDTH 576 0
DWIDTH 5 0
BBX 4 3 0 4
BITMAP
80
80
F0
ENDCHAR
STARTCHAR C029
ENCODING 29
SWIDTH 576 0
DWIDTH 5 0
BBX 5 3 0 4
BITMAP
50
F8
50
ENDCHAR
STARTCHAR C030
ENCODING 30
SWIDTH 576 0
DWIDTH 5 0
BBX 5 3 0 4
BITMAP
20
70
F8
ENDCHAR
STARTCHAR C031
ENCODING 31
SWIDTH 576 0
DWIDTH 5 0
BBX 5 3 0 4
BITMAP
F8
70
20
ENDCHAR
STARTCHAR C032
ENCODING 32
SWIDTH 576 0
DWIDTH 5 0
BBX 1 1 4 0
BITMAP
00
ENDCHAR
STARTCHAR C033
ENCODING 33
SWIDTH 576 0
DWIDTH 5 0
BBX 1 8 1 2
BITMAP
80
80
80
80
80
00
80
80
ENDCHAR
STARTCHAR C034
ENCODING 34
SWIDTH 576 0
DWIDTH 5 0
BBX 3 2 1 8
BITMAP
A0
A0
ENDCHAR
STARTCHAR C035
ENCODING 35
SWIDTH 576 0
DWIDTH 5 0
BBX 5 9 0 1
BITMAP
50
50
50
F8
50
F8
50
50
50
ENDCHAR
STARTCHAR C036
ENCODING 36
SWIDTH 576 0
DWIDTH 5 0
BBX 4 9 0 1
BITMAP
20
20
70
A0
60
30
E0
20
20
ENDCHAR
STARTCHAR C037
ENCODING 37
SWIDTH 576 0
DWIDTH 5 0
BBX 4 6 0 2
BITMAP
90
90
20
40
90
90
ENDCHAR
STARTCHAR C038
ENCODING 38
SWIDTH 576 0
DWIDTH 5 0
BBX 4 7 0 2
BITMAP
40
A0
A0
40
B0
A0
70
ENDCHAR
STARTCHAR C039
ENCODING 39
SWIDTH 576 0
DWIDTH 5 0
BBX 2 3 0 7
BITMAP
40
40
80
ENDCHAR
STARTCHAR C040
ENCODING 40
SWIDTH 576 0
DWIDTH 5 0
BBX 4 9 0 1
BITMAP
30
40
80
80
80
80
80
40
30
ENDCHAR
STARTCHAR C041
ENCODING 41
SWIDTH 576 0
DWIDTH 5 0
BBX 4 9 0 1
BITMAP
C0
20
10
10
10
10
10
20
C0
ENDCHAR
STARTCHAR C042
ENCODING 42
SWIDTH 576 0
DWIDTH 5 0
BBX 4 5 0 3
BITMAP
90
60
F0
60
90
ENDCHAR
STARTCHAR C043
ENCODING 43
SWIDTH 576 0
DWIDTH 5 0
BBX 3 5 0 3
BITMAP
40
40
E0
40
40
ENDCHAR
STARTCHAR C044
ENCODING 44
SWIDTH 576 0
DWIDTH 5 0
BBX 2 3 0 1
BITMAP
40
40
80
ENDCHAR
STARTCHAR C045
ENCODING 45
SWIDTH 576 0
DWIDTH 5 0
BBX 4 1 0 5
BITMAP
F0
ENDCHAR
STARTCHAR C046
ENCODING 46
SWIDTH 576 0
DWIDTH 5 0
BBX 1 2 1 2
BITMAP
80
80
ENDCHAR
STARTCHAR C047
ENCODING 47
SWIDTH 576 0
DWIDTH 5 0
BBX 4 9 0 1
BITMAP
10
10
20
20
60
40
40
80
80
ENDCHAR
STARTCHAR C048
ENCODING 48
SWIDTH 576 0
DWIDTH 5 0
BBX 4 7 0 2
BITMAP
60
90
90
00
90
90
60
ENDCHAR
STARTCHAR C049
ENCODING 49
SWIDTH 576 0
DWIDTH 5 0
BBX 1 7 3 2
BITMAP
80
80
80
00
80
80
80
ENDCHAR
STARTCHAR C050
ENCODING 50
SWIDTH 576 0
DWIDTH 5 0
BBX 4 7 0 2
BITMAP
60
10
10
60
80
80
60
ENDCHAR
STARTCHAR C051
ENCODING 51
SWIDTH 576 0
DWIDTH 5 0
BBX 3 7 1 2
BITMAP
C0
20
20
C0
20
20
C0
ENDCHAR
STARTCHAR C052
ENCODING 52
SWIDTH 576 0
DWIDTH 5 0
BBX 4 6 0 3
BITMAP
90
90
90
60
10
10
ENDCHAR
STARTCHAR C053
ENCODING 53
SWIDTH 576 0
DWIDTH 5 0
BBX 4 7 0 2
BITMAP
60
80
80
60
10
10
60
ENDCHAR
STARTCHAR C054
ENCODING 54
SWIDTH 576 0
DWIDTH 5 0
BBX 4 7 0 2
BITMAP
60
80
80
60
90
90
60
ENDCHAR
STARTCHAR C055
ENCODING 55
SWIDTH 576 0
DWIDTH 5 0
BBX 3 7 1 2
BITMAP
C0
20
20
00
20
20
20
ENDCHAR
STARTCHAR C056
ENCODING 56
SWIDTH 576 0
DWIDTH 5 0
BBX 4 7 0 2
BITMAP
60
90
90
60
90
90
60
ENDCHAR
STARTCHAR C057
ENCODING 57
SWIDTH 576 0
DWIDTH 5 0
BBX 4 7 0 2
BITMAP
60
90
90
60
10
10
10
ENDCHAR
STARTCHAR C058
ENCODING 58
SWIDTH 576 0
DWIDTH 5 0
BBX 1 5 1 2
BITMAP
80
80
00
80
80
ENDCHAR
STARTCHAR C059
ENCODING 59
SWIDTH 576 0
DWIDTH 5 0
BBX 2 6 0 1
BITMAP
40
40
00
40
40
80
ENDCHAR
STARTCHAR C060
ENCODING 60
SWIDTH 576 0
DWIDTH 5 0
BBX 4 7 0 2
BITMAP
10
20
40
80
40
20
10
ENDCHAR
STARTCHAR C061
ENCODING 61
SWIDTH 576 0
DWIDTH 5 0
BBX 4 3 0 4
BITMAP
F0
00
F0
ENDCHAR
STARTCHAR C062
ENCODING 62
SWIDTH 576 0
DWIDTH 5 0
BBX 4 7 0 2
BITMAP
80
40
20
10
20
40
80
ENDCHAR
STARTCHAR C063
ENCODING 63
SWIDTH 576 0
DWIDTH 5 0
BBX 4 7 0 2
BITMAP
E0
10
10
60
40
00
40
ENDCHAR
STARTCHAR C064
ENCODING 64
SWIDTH 576 0
DWIDTH 5 0
BBX 4 7 0 2
BITMAP
60
90
90
D0
D0
10
60
ENDCHAR
STARTCHAR C065
ENCODING 65
SWIDTH 576 0
DWIDTH 5 0
BBX 4 8 0 2
BITMAP
C0
20
90
90
90
F0
90
90
ENDCHAR
STARTCHAR C066
ENCODING 66
SWIDTH 576 0
DWIDTH 5 0
BBX 4 8 0 2
BITMAP
C0
20
A0
E0
90
90
90
E0
ENDCHAR
STARTCHAR C067
ENCODING 67
SWIDTH 576 0
DWIDTH 5 0
BBX 4 8 0 2
BITMAP
30
40
80
80
80
80
80
70
ENDCHAR
STARTCHAR C068
ENCODING 68
SWIDTH 576 0
DWIDTH 5 0
BBX 4 8 0 2
BITMAP
C0
20
90
90
90
90
90
E0
ENDCHAR
STARTCHAR C069
ENCODING 69
SWIDTH 576 0
DWIDTH 5 0
BBX 4 8 0 2
BITMAP
F0
80
00
E0
80
80
80
F0
ENDCHAR
STARTCHAR C070
ENCODING 70
SWIDTH 576 0
DWIDTH 5 0
BBX 4 8 0 2
BITMAP
F0
80
00
E0
80
80
80
80
ENDCHAR
STARTCHAR C071
ENCODING 71
SWIDTH 576 0
DWIDTH 5 0
BBX 4 8 0 2
BITMAP
30
40
80
80
B0
80
90
70
ENDCHAR
STARTCHAR C072
ENCODING 72
SWIDTH 576 0
DWIDTH 5 0
BBX 4 8 0 2
BITMAP
90
90
10
F0
90
90
90
90
ENDCHAR
STARTCHAR C073
ENCODING 73
SWIDTH 576 0
DWIDTH 5 0
BBX 3 8 0 2
BITMAP
E0
00
40
40
40
40
40
E0
ENDCHAR
STARTCHAR C074
ENCODING 74
SWIDTH 576 0
DWIDTH 5 0
BBX 4 8 0 2
BITMAP
70
00
10
10
10
10
20
C0
ENDCHAR
STARTCHAR C075
ENCODING 75
SWIDTH 576 0
DWIDTH 5 0
BBX 4 8 0 2
BITMAP
80
90
20
C0
A0
90
90
90
ENDCHAR
STARTCHAR C076
ENCODING 76
SWIDTH 576 0
DWIDTH 5 0
BBX 4 8 0 2
BITMAP
80
80
80
80
80
80
80
F0
ENDCHAR
STARTCHAR C077
ENCODING 77
SWIDTH 576 0
DWIDTH 5 0
BBX 4 8 0 2
BITMAP
90
70
F0
B0
90
90
90
90
ENDCHAR
STARTCHAR C078
ENCODING 78
SWIDTH 576 0
DWIDTH 5 0
BBX 4 8 0 2
BITMAP
90
D0
D0
D0
B0
B0
B0
90
ENDCHAR
STARTCHAR C079
ENCODING 79
SWIDTH 576 0
DWIDTH 5 0
BBX 4 8 0 2
BITMAP
60
10
90
90
90
90
90
60
ENDCHAR
STARTCHAR C080
ENCODING 80
SWIDTH 576 0
DWIDTH 5 0
BBX 4 8 0 2
BITMAP
E0
10
10
E0
80
80
80
80
ENDCHAR
STARTCHAR C081
ENCODING 81
SWIDTH 576 0
DWIDTH 5 0
BBX 5 9 0 1
BITMAP
60
10
90
90
90
D0
B0
70
08
ENDCHAR
STARTCHAR C082
ENCODING 82
SWIDTH 576 0
DWIDTH 5 0
BBX 4 8 0 2
BITMAP
E0
10
10
E0
A0
90
90
90
ENDCHAR
STARTCHAR C083
ENCODING 83
SWIDTH 576 0
DWIDTH 5 0
BBX 4 8 0 2
BITMAP
F0
00
80
40
20
10
10
E0
ENDCHAR
STARTCHAR C084
ENCODING 84
SWIDTH 576 0
DWIDTH 5 0
BBX 4 8 0 2
BITMAP
F0
00
20
20
20
20
20
20
ENDCHAR
STARTCHAR C085
ENCODING 85
SWIDTH 576 0
DWIDTH 5 0
BBX 4 8 0 2
BITMAP
90
90
90
90
90
90
90
60
ENDCHAR
STARTCHAR C086
ENCODING 86
SWIDTH 576 0
DWIDTH 5 0
BBX 4 8 0 2
BITMAP
90
90
90
90
90
A0
C0
80
ENDCHAR
STARTCHAR C087
ENCODING 87
SWIDTH 576 0
DWIDTH 5 0
BBX 4 8 0 2
BITMAP
90
90
90
90
B0
F0
F0
90
ENDCHAR
STARTCHAR C088
ENCODING 88
SWIDTH 576 0
DWIDTH 5 0
BBX 4 8 0 2
BITMAP
90
90
10
60
60
90
90
90
ENDCHAR
STARTCHAR C089
ENCODING 89
SWIDTH 576 0
DWIDTH 5 0
BBX 4 8 0 2
BITMAP
90
90
90
50
30
10
10
10
ENDCHAR
STARTCHAR C090
ENCODING 90
SWIDTH 576 0
DWIDTH 5 0
BBX 4 8 0 2
BITMAP
F0
00
20
20
40
40
80
F0
ENDCHAR
STARTCHAR C091
ENCODING 91
SWIDTH 576 0
DWIDTH 5 0
BBX 4 9 0 1
BITMAP
F0
80
80
80
80
80
80
80
F0
ENDCHAR
STARTCHAR C092
ENCODING 92
SWIDTH 576 0
DWIDTH 5 0
BBX 4 9 0 1
BITMAP
80
80
40
40
60
20
20
10
10
ENDCHAR
STARTCHAR C093
ENCODING 93
SWIDTH 576 0
DWIDTH 5 0
BBX 4 9 0 1
BITMAP
F0
10
10
10
10
10
10
10
F0
ENDCHAR
STARTCHAR C094
ENCODING 94
SWIDTH 576 0
DWIDTH 5 0
BBX 3 2 0 8
BITMAP
40
A0
ENDCHAR
STARTCHAR C095
ENCODING 95
SWIDTH 576 0
DWIDTH 5 0
BBX 5 1 0 1
BITMAP
F8
ENDCHAR
STARTCHAR C096
ENCODING 96
SWIDTH 576 0
DWIDTH 5 0
BBX 2 3 1 7
BITMAP
80
80
40
ENDCHAR
STARTCHAR C097
ENCODING 97
SWIDTH 576 0
DWIDTH 5 0
BBX 4 5 0 2
BITMAP
50
B0
90
90
70
ENDCHAR
STARTCHAR C098
ENCODING 98
SWIDTH 576 0
DWIDTH 5 0
BBX 4 8 0 2
BITMAP
80
80
80
E0
90
90
90
E0
ENDCHAR
STARTCHAR C099
ENCODING 99
SWIDTH 576 0
DWIDTH 5 0
BBX 4 5 0 2
BITMAP
70
80
80
80
70
ENDCHAR
STARTCHAR C100
ENCODING 100
SWIDTH 576 0
DWIDTH 5 0
BBX 4 8 0 2
BITMAP
10
10
10
70
90
90
90
70
ENDCHAR
STARTCHAR C101
ENCODING 101
SWIDTH 576 0
DWIDTH 5 0
BBX 4 5 0 2
BITMAP
60
90
F0
80
70
ENDCHAR
STARTCHAR C102
ENCODING 102
SWIDTH 576 0
DWIDTH 5 0
BBX 4 8 0 2
BITMAP
30
40
40
F0
40
40
40
40
ENDCHAR
STARTCHAR C103
ENCODING 103
SWIDTH 576 0
DWIDTH 5 0
BBX 4 7 0 0
BITMAP
70
90
90
70
10
10
E0
ENDCHAR
STARTCHAR C104
ENCODING 104
SWIDTH 576 0
DWIDTH 5 0
BBX 4 8 0 2
BITMAP
80
80
80
E0
90
90
90
90
ENDCHAR
STARTCHAR C105
ENCODING 105
SWIDTH 576 0
DWIDTH 5 0
BBX 1 6 2 2
BITMAP
80
00
80
80
80
80
ENDCHAR
STARTCHAR C106
ENCODING 106
SWIDTH 576 0
DWIDTH 5 0
BBX 3 8 1 0
BITMAP
20
00
20
20
20
20
20
C0
ENDCHAR
STARTCHAR C107
ENCODING 107
SWIDTH 576 0
DWIDTH 5 0
BBX 4 8 0 2
BITMAP
80
80
80
80
A0
C0
A0
90
ENDCHAR
STARTCHAR C108
ENCODING 108
SWIDTH 576 0
DWIDTH 5 0
BBX 3 8 1 2
BITMAP
C0
40
40
40
40
40
40
E0
ENDCHAR
STARTCHAR C109
ENCODING 109
SWIDTH 576 0
DWIDTH 5 0
BBX 4 5 0 2
BITMAP
90
F0
B0
90
90
ENDCHAR
STARTCHAR C110
ENCODING 110
SWIDTH 576 0
DWIDTH 5 0
BBX 4 5 0 2
BITMAP
E0
90
90
90
90
ENDCHAR
STARTCHAR C111
ENCODING 111
SWIDTH 576 0
DWIDTH 5 0
BBX 4 5 0 2
BITMAP
60
90
90
90
60
ENDCHAR
STARTCHAR C112
ENCODING 112
SWIDTH 576 0
DWIDTH 5 0
BBX 4 7 0 0
BITMAP
E0
90
90
90
E0
80
80
ENDCHAR
STARTCHAR C113
ENCODING 113
SWIDTH 576 0
DWIDTH 5 0
BBX 4 7 0 0
BITMAP
70
90
90
90
70
10
10
ENDCHAR
STARTCHAR C114
ENCODING 114
SWIDTH 576 0
DWIDTH 5 0
BBX 4 5 0 2
BITMAP
B0
C0
80
80
80
ENDCHAR
STARTCHAR C115
ENCODING 115
SWIDTH 576 0
DWIDTH 5 0
BBX 4 5 0 2
BITMAP
70
80
60
10
E0
ENDCHAR
STARTCHAR C116
ENCODING 116
SWIDTH 576 0
DWIDTH 5 0
BBX 4 8 0 2
BITMAP
20
20
20
F0
20
20
20
20
ENDCHAR
STARTCHAR C117
ENCODING 117
SWIDTH 576 0
DWIDTH 5 0
BBX 4 5 0 2
BITMAP
90
90
90
90
60
ENDCHAR
STARTCHAR C118
ENCODING 118
SWIDTH 576 0
DWIDTH 5 0
BBX 4 5 0 2
BITMAP
90
90
A0
C0
80
ENDCHAR
STARTCHAR C119
ENCODING 119
SWIDTH 576 0
DWIDTH 5 0
BBX 4 5 0 2
BITMAP
90
90
B0
F0
90
ENDCHAR
STARTCHAR C120
ENCODING 120
SWIDTH 576 0
DWIDTH 5 0
BBX 4 5 0 2
BITMAP
90
90
60
90
90
ENDCHAR
STARTCHAR C121
ENCODING 121
SWIDTH 576 0
DWIDTH 5 0
BBX 4 7 0 0
BITMAP
90
90
90
90
70
10
E0
ENDCHAR
STARTCHAR C122
ENCODING 122
SWIDTH 576 0
DWIDTH 5 0
BBX 4 5 0 2
BITMAP
F0
10
60
80
F0
ENDCHAR
STARTCHAR C123
ENCODING 123
SWIDTH 576 0
DWIDTH 5 0
BBX 4 9 0 1
BITMAP
30
40
40
40
80
40
40
40
30
ENDCHAR
STARTCHAR C124
ENCODING 124
SWIDTH 576 0
DWIDTH 5 0
BBX 1 9 2 1
BITMAP
80
80
80
80
00
80
80
80
80
ENDCHAR
STARTCHAR C125
ENCODING 125
SWIDTH 576 0
DWIDTH 5 0
BBX 4 9 0 1
BITMAP
C0
20
20
20
10
20
20
20
C0
ENDCHAR
STARTCHAR C126
ENCODING 126
SWIDTH 576 0
DWIDTH 5 0
BBX 4 3 0 7
BITMAP
50
A0
80
ENDCHAR
STARTCHAR C127
ENCODING 127
SWIDTH 576 0
DWIDTH 5 0
BBX 4 7 0 1
BITMAP
60
60
60
90
90
90
F0
ENDCHAR
STARTCHAR C128
ENCODING 128
SWIDTH 576 0
DWIDTH 5 0
BBX 5 8 0 1
BITMAP
30
48
B0
A8
A0
A0
A0
E0
ENDCHAR
STARTCHAR C129
ENCODING 129
SWIDTH 576 0
DWIDTH 5 0
BBX 5 8 0 1
BITMAP
08
08
88
48
A8
58
20
18
ENDCHAR
STARTCHAR C130
ENCODING 130
SWIDTH 576 0
DWIDTH 5 0
BBX 2 7 0 2
BITMAP
C0
40
40
40
40
40
80
ENDCHAR
STARTCHAR C131
ENCODING 131
SWIDTH 576 0
DWIDTH 5 0
BBX 5 8 0 1
BITMAP
38
40
B8
80
B8
B8
40
38
ENDCHAR
STARTCHAR C132
ENCODING 132
SWIDTH 576 0
DWIDTH 5 0
BBX 5 8 0 1
BITMAP
F8
00
F8
20
E0
F8
00
F8
ENDCHAR
STARTCHAR C133
ENCODING 133
SWIDTH 576 0
DWIDTH 5 0
BBX 2 8 0 1
BITMAP
C0
40
C0
00
00
C0
40
C0
ENDCHAR
STARTCHAR C134
ENCODING 134
SWIDTH 576 0
DWIDTH 5 0
BBX 5 8 0 1
BITMAP
E0
B8
40
38
38
40
B8
E0
ENDCHAR
STARTCHAR C135
ENCODING 135
SWIDTH 576 0
DWIDTH 5 0
BBX 5 4 0 3
BITMAP
F8
00
00
F8
ENDCHAR
STARTCHAR C136
ENCODING 136
SWIDTH 576 0
DWIDTH 5 0
BBX 5 8 0 1
BITMAP
18
70
88
70
70
88
70
18
ENDCHAR
STARTCHAR C137
ENCODING 137
SWIDTH 576 0
DWIDTH 5 0
BBX 1 8 0 1
BITMAP
80
80
00
00
00
00
80
80
ENDCHAR
STARTCHAR C138
ENCODING 138
SWIDTH 576 0
DWIDTH 5 0
BBX 5 8 0 1
BITMAP
E0
A0
A0
A0
A0
B8
40
38
ENDCHAR
STARTCHAR C139
ENCODING 139
SWIDTH 576 0
DWIDTH 5 0
BBX 5 8 0 1
BITMAP
08
08
08
08
08
F8
00
F8
ENDCHAR
STARTCHAR C140
ENCODING 140
SWIDTH 576 0
DWIDTH 5 0
BBX 2 7 0 2
BITMAP
C0
40
40
40
40
40
80
ENDCHAR
STARTCHAR C141
ENCODING 141
SWIDTH 576 0
DWIDTH 5 0
BBX 5 8 0 1
BITMAP
78
80
B8
80
78
F8
80
F8
ENDCHAR
STARTCHAR C142
ENCODING 142
SWIDTH 576 0
DWIDTH 5 0
BBX 5 8 0 1
BITMAP
F8
00
F8
00
F8
F8
00
F8
ENDCHAR
STARTCHAR C143
ENCODING 143
SWIDTH 576 0
DWIDTH 5 0
BBX 2 8 0 1
BITMAP
C0
40
C0
80
40
40
40
80
ENDCHAR
STARTCHAR C144
ENCODING 144
SWIDTH 576 0
DWIDTH 5 0
BBX 5 9 0 0
BITMAP
20
70
70
60
68
60
F8
F8
68
ENDCHAR
STARTCHAR C145
ENCODING 145
SWIDTH 576 0
DWIDTH 5 0
BBX 5 9 0 0
BITMAP
C0
18
D8
D0
90
40
F0
C0
80
ENDCHAR
STARTCHAR C146
ENCODING 146
SWIDTH 576 0
DWIDTH 5 0
BBX 5 9 0 1
BITMAP
18
08
20
A8
B8
B0
00
08
18
ENDCHAR
STARTCHAR C147
ENCODING 147
SWIDTH 576 0
DWIDTH 5 0
BBX 5 8 0 2
BITMAP
08
D8
F0
70
70
F8
D8
D8
ENDCHAR
STARTCHAR C148
ENCODING 148
SWIDTH 576 0
DWIDTH 5 0
BBX 5 10 0 0
BITMAP
F8
88
88
88
88
88
88
88
88
F8
ENDCHAR
STARTCHAR C149
ENCODING 149
SWIDTH 576 0
DWIDTH 5 0
BBX 5 10 0 0
BITMAP
F8
88
88
88
88
88
88
88
88
F8
ENDCHAR
STARTCHAR C150
ENCODING 150
SWIDTH 576 0
DWIDTH 5 0
BBX 5 10 0 0
BITMAP
F8
88
88
88
88
88
88
88
88
F8
ENDCHAR
STARTCHAR C151
ENCODING 151
SWIDTH 576 0
DWIDTH 5 0
BBX 5 10 0 0
BITMAP
F8
88
88
88
88
88
88
88
88
F8
ENDCHAR
STARTCHAR C152
ENCODING 152
SWIDTH 576 0
DWIDTH 5 0
BBX 5 10 0 0
BITMAP
F8
88
88
88
88
88
88
88
88
F8
ENDCHAR
STARTCHAR C153
ENCODING 153
SWIDTH 576 0
DWIDTH 5 0
BBX 5 10 0 0
BITMAP
F8
88
88
88
88
88
88
88
88
F8
ENDCHAR
STARTCHAR C154
ENCODING 154
SWIDTH 576 0
DWIDTH 5 0
BBX 5 10 0 0
BITMAP
F8
88
88
88
88
88
88
88
88
F8
ENDCHAR
STARTCHAR C155
ENCODING 155
SWIDTH 576 0
DWIDTH 5 0
BBX 4 9 0 0
BITMAP
20
20
70
80
80
80
70
20
20
ENDCHAR
STARTCHAR C156
ENCODING 156
SWIDTH 576 0
DWIDTH 5 0
BBX 4 7 0 1
BITMAP
20
50
40
60
40
E0
D0
ENDCHAR
STARTCHAR C157
ENCODING 157
SWIDTH 576 0
DWIDTH 5 0
BBX 3 8 0 1
BITMAP
A0
A0
A0
40
E0
40
E0
40
ENDCHAR
STARTCHAR C158
ENCODING 158
SWIDTH 576 0
DWIDTH 5 0
BBX 5 10 0 0
BITMAP
F8
88
88
88
88
88
88
88
88
F8
ENDCHAR
STARTCHAR C159
ENCODING 159
SWIDTH 576 0
DWIDTH 5 0
BBX 5 10 0 0
BITMAP
10
28
20
20
70
20
20
20
A0
40
ENDCHAR
STARTCHAR C160
ENCODING 160
SWIDTH 576 0
DWIDTH 5 0
BBX 5 10 0 0
BITMAP
F8
88
88
88
88
88
88
88
88
F8
ENDCHAR
STARTCHAR C161
ENCODING 161
SWIDTH 576 0
DWIDTH 5 0
BBX 5 10 0 0
BITMAP
F8
88
88
88
88
88
88
88
88
F8
ENDCHAR
STARTCHAR C162
ENCODING 162
SWIDTH 576 0
DWIDTH 5 0
BBX 5 10 0 0
BITMAP
F8
88
88
88
88
88
88
88
88
F8
ENDCHAR
STARTCHAR C163
ENCODING 163
SWIDTH 576 0
DWIDTH 5 0
BBX 5 10 0 0
BITMAP
F8
88
88
88
88
88
88
88
88
F8
ENDCHAR
STARTCHAR C164
ENCODING 164
SWIDTH 576 0
DWIDTH 5 0
BBX 5 10 0 0
BITMAP
F8
88
88
88
88
88
88
88
88
F8
ENDCHAR
STARTCHAR C165
ENCODING 165
SWIDTH 576 0
DWIDTH 5 0
BBX 5 10 0 0
BITMAP
F8
88
88
88
88
88
88
88
88
F8
ENDCHAR
STARTCHAR C166
ENCODING 166
SWIDTH 576 0
DWIDTH 5 0
BBX 4 6 0 2
BITMAP
70
90
90
70
00
F0
ENDCHAR
STARTCHAR C167
ENCODING 167
SWIDTH 576 0
DWIDTH 5 0
BBX 4 6 0 2
BITMAP
60
90
90
60
00
F0
ENDCHAR
STARTCHAR C168
ENCODING 168
SWIDTH 576 0
DWIDTH 5 0
BBX 4 7 0 2
BITMAP
20
00
20
60
80
80
70
ENDCHAR
STARTCHAR C169
ENCODING 169
SWIDTH 576 0
DWIDTH 5 0
BBX 4 3 0 2
BITMAP
F0
80
80
ENDCHAR
STARTCHAR C170
ENCODING 170
SWIDTH 576 0
DWIDTH 5 0
BBX 4 3 0 2
BITMAP
F0
10
10
ENDCHAR
STARTCHAR C171
ENCODING 171
SWIDTH 576 0
DWIDTH 5 0
BBX 4 9 0 1
BITMAP
80
80
90
A0
40
B0
10
20
30
ENDCHAR
STARTCHAR C172
ENCODING 172
SWIDTH 576 0
DWIDTH 5 0
BBX 4 9 0 1
BITMAP
80
80
90
A0
40
90
50
70
10
ENDCHAR
STARTCHAR C173
ENCODING 173
SWIDTH 576 0
DWIDTH 5 0
BBX 1 8 1 2
BITMAP
80
80
00
80
80
80
80
80
ENDCHAR
STARTCHAR C174
ENCODING 174
SWIDTH 576 0
DWIDTH 5 0
BBX 4 3 0 3
BITMAP
50
A0
50
ENDCHAR
STARTCHAR C175
ENCODING 175
SWIDTH 576 0
DWIDTH 5 0
BBX 4 3 0 3
BITMAP
A0
50
A0
ENDCHAR
STARTCHAR C176
ENCODING 176
SWIDTH 576 0
DWIDTH 5 0
BBX 5 10 0 0
BITMAP
80
28
40
10
80
28
40
10
80
28
ENDCHAR
STARTCHAR C177
ENCODING 177
SWIDTH 576 0
DWIDTH 5 0
BBX 5 10 0 0
BITMAP
50
A8
50
A8
50
A8
50
A8
50
A8
ENDCHAR
STARTCHAR C178
ENCODING 178
SWIDTH 576 0
DWIDTH 5 0
BBX 5 10 0 0
BITMAP
F0
78
A8
78
D8
A8
F8
F8
B0
E8
ENDCHAR
STARTCHAR C179
ENCODING 179
SWIDTH 576 0
DWIDTH 5 0
BBX 1 10 2 0
BITMAP
80
80
80
80
80
80
80
80
80
80
ENDCHAR
STARTCHAR C180
ENCODING 180
SWIDTH 576 0
DWIDTH 5 0
BBX 3 10 0 0
BITMAP
20
20
20
20
20
E0
20
20
20
20
ENDCHAR
STARTCHAR C181
ENCODING 181
SWIDTH 576 0
DWIDTH 5 0
BBX 3 10 0 0
BITMAP
20
20
20
E0
20
E0
20
20
20
20
ENDCHAR
STARTCHAR C182
ENCODING 182
SWIDTH 576 0
DWIDTH 5 0
BBX 4 10 0 0
BITMAP
50
50
50
50
50
D0
50
50
50
50
ENDCHAR
STARTCHAR C183
ENCODING 183
SWIDTH 576 0
DWIDTH 5 0
BBX 4 5 0 0
BITMAP
F0
50
50
50
50
ENDCHAR
STARTCHAR C184
ENCODING 184
SWIDTH 576 0
DWIDTH 5 0
BBX 3 7 0 0
BITMAP
E0
20
E0
20
20
20
20
ENDCHAR
STARTCHAR C185
ENCODING 185
SWIDTH 576 0
DWIDTH 5 0
BBX 4 10 0 0
BITMAP
50
50
50
D0
10
D0
50
50
50
50
ENDCHAR
STARTCHAR C186
ENCODING 186
SWIDTH 576 0
DWIDTH 5 0
BBX 3 10 1 0
BITMAP
A0
A0
A0
A0
A0
A0
A0
A0
A0
A0
ENDCHAR
STARTCHAR C187
ENCODING 187
SWIDTH 576 0
DWIDTH 5 0
BBX 4 7 0 0
BITMAP
F0
10
D0
50
50
50
50
ENDCHAR
STARTCHAR C188
ENCODING 188
SWIDTH 576 0
DWIDTH 5 0
BBX 4 6 0 4
BITMAP
50
50
50
D0
10
F0
ENDCHAR
STARTCHAR C189
ENCODING 189
SWIDTH 576 0
DWIDTH 5 0
BBX 4 6 0 4
BITMAP
50
50
50
50
50
F0
ENDCHAR
STARTCHAR C190
ENCODING 190
SWIDTH 576 0
DWIDTH 5 0
BBX 3 6 0 4
BITMAP
20
20
20
E0
20
E0
ENDCHAR
STARTCHAR C191
ENCODING 191
SWIDTH 576 0
DWIDTH 5 0
BBX 3 5 0 0
BITMAP
E0
20
20
20
20
ENDCHAR
STARTCHAR C192
ENCODING 192
SWIDTH 576 0
DWIDTH 5 0
BBX 3 6 2 4
BITMAP
80
80
80
80
80
E0
ENDCHAR
STARTCHAR C193
ENCODING 193
SWIDTH 576 0
DWIDTH 5 0
BBX 5 6 0 4
BITMAP
20
20
20
20
20
F8
ENDCHAR
STARTCHAR C194
ENCODING 194
SWIDTH 576 0
DWIDTH 5 0
BBX 5 5 0 0
BITMAP
F8
20
20
20
20
ENDCHAR
STARTCHAR C195
ENCODING 195
SWIDTH 576 0
DWIDTH 5 0
BBX 3 10 2 0
BITMAP
80
80
80
80
80
E0
80
80
80
80
ENDCHAR
STARTCHAR C196
ENCODING 196
SWIDTH 576 0
DWIDTH 5 0
BBX 5 1 0 4
BITMAP
F8
ENDCHAR
STARTCHAR C197
ENCODING 197
SWIDTH 576 0
DWIDTH 5 0
BBX 5 10 0 0
BITMAP
20
20
20
20
20
F8
20
20
20
20
ENDCHAR
STARTCHAR C198
ENCODING 198
SWIDTH 576 0
DWIDTH 5 0
BBX 3 10 2 0
BITMAP
80
80
80
E0
80
E0
80
80
80
80
ENDCHAR
STARTCHAR C199
ENCODING 199
SWIDTH 576 0
DWIDTH 5 0
BBX 4 10 1 0
BITMAP
A0
A0
A0
A0
A0
B0
A0
A0
A0
A0
ENDCHAR
STARTCHAR C200
ENCODING 200
SWIDTH 576 0
DWIDTH 5 0
BBX 4 6 1 4
BITMAP
A0
A0
A0
B0
80
F0
ENDCHAR
STARTCHAR C201
ENCODING 201
SWIDTH 576 0
DWIDTH 5 0
BBX 4 7 1 0
BITMAP
F0
80
B0
A0
A0
A0
A0
ENDCHAR
STARTCHAR C202
ENCODING 202
SWIDTH 576 0
DWIDTH 5 0
BBX 5 6 0 4
BITMAP
50
50
50
D8
00
F8
ENDCHAR
STARTCHAR C203
ENCODING 203
SWIDTH 576 0
DWIDTH 5 0
BBX 5 7 0 0
BITMAP
F8
00
D8
50
50
50
50
ENDCHAR
STARTCHAR C204
ENCODING 204
SWIDTH 576 0
DWIDTH 5 0
BBX 4 10 1 0
BITMAP
A0
A0
A0
B0
80
B0
A0
A0
A0
A0
ENDCHAR
STARTCHAR C205
ENCODING 205
SWIDTH 576 0
DWIDTH 5 0
BBX 5 3 0 4
BITMAP
F8
00
F8
ENDCHAR
STARTCHAR C206
ENCODING 206
SWIDTH 576 0
DWIDTH 5 0
BBX 5 10 0 0
BITMAP
50
50
50
D8
00
D8
50
50
50
50
ENDCHAR
STARTCHAR C207
ENCODING 207
SWIDTH 576 0
DWIDTH 5 0
BBX 5 6 0 4
BITMAP
20
20
20
F8
00
F8
ENDCHAR
STARTCHAR C208
ENCODING 208
SWIDTH 576 0
DWIDTH 5 0
BBX 5 6 0 4
BITMAP
50
50
50
50
50
F8
ENDCHAR
STARTCHAR C209
ENCODING 209
SWIDTH 576 0
DWIDTH 5 0
BBX 5 7 0 0
BITMAP
F8
00
F8
20
20
20
20
ENDCHAR
STARTCHAR C210
ENCODING 210
SWIDTH 576 0
DWIDTH 5 0
BBX 5 5 0 0
BITMAP
F8
50
50
50
50
ENDCHAR
STARTCHAR C211
ENCODING 211
SWIDTH 576 0
DWIDTH 5 0
BBX 4 6 1 4
BITMAP
A0
A0
A0
A0
A0
F0
ENDCHAR
STARTCHAR C212
ENCODING 212
SWIDTH 576 0
DWIDTH 5 0
BBX 3 6 2 4
BITMAP
80
80
80
E0
80
E0
ENDCHAR
STARTCHAR C213
ENCODING 213
SWIDTH 576 0
DWIDTH 5 0
BBX 3 7 2 0
BITMAP
E0
80
E0
80
80
80
80
ENDCHAR
STARTCHAR C214
ENCODING 214
SWIDTH 576 0
DWIDTH 5 0
BBX 4 5 1 0
BITMAP
F0
A0
A0
A0
A0
ENDCHAR
STARTCHAR C215
ENCODING 215
SWIDTH 576 0
DWIDTH 5 0
BBX 5 10 0 0
BITMAP
50
50
50
50
50
F8
50
50
50
50
ENDCHAR
STARTCHAR C216
ENCODING 216
SWIDTH 576 0
DWIDTH 5 0
BBX 5 10 0 0
BITMAP
20
20
20
F8
20
F8
20
20
20
20
ENDCHAR
STARTCHAR C217
ENCODING 217
SWIDTH 576 0
DWIDTH 5 0
BBX 3 6 0 4
BITMAP
20
20
20
20
20
E0
ENDCHAR
STARTCHAR C218
ENCODING 218
SWIDTH 576 0
DWIDTH 5 0
BBX 3 5 2 0
BITMAP
E0
80
80
80
80
ENDCHAR
STARTCHAR C219
ENCODING 219
SWIDTH 576 0
DWIDTH 5 0
BBX 5 10 0 0
BITMAP
F8
F8
F8
F8
F8
F8
F8
F8
F8
F8
ENDCHAR
STARTCHAR C220
ENCODING 220
SWIDTH 576 0
DWIDTH 5 0
BBX 5 5 0 0
BITMAP
F8
F8
F8
F8
F8
ENDCHAR
STARTCHAR C221
ENCODING 221
SWIDTH 576 0
DWIDTH 5 0
BBX 3 10 0 0
BITMAP
E0
E0
E0
E0
E0
E0
E0
E0
E0
E0
ENDCHAR
STARTCHAR C222
ENCODING 222
SWIDTH 576 0
DWIDTH 5 0
BBX 2 10 3 0
BITMAP
C0
C0
C0
C0
C0
C0
C0
C0
C0
C0
ENDCHAR
STARTCHAR C223
ENCODING 223
SWIDTH 576 0
DWIDTH 5 0
BBX 5 5 0 5
BITMAP
F8
F8
F8
F8
F8
ENDCHAR
STARTCHAR C224
ENCODING 224
SWIDTH 576 0
DWIDTH 5 0
BBX 4 5 0 2
BITMAP
50
A0
A0
A0
50
ENDCHAR
STARTCHAR C225
ENCODING 225
SWIDTH 576 0
DWIDTH 5 0
BBX 4 8 0 1
BITMAP
60
90
A0
90
90
A0
80
80
ENDCHAR
STARTCHAR C226
ENCODING 226
SWIDTH 576 0
DWIDTH 5 0
BBX 4 8 0 1
BITMAP
F0
90
80
80
80
80
80
80
ENDCHAR
STARTCHAR C227
ENCODING 227
SWIDTH 576 0
DWIDTH 5 0
BBX 5 5 0 2
BITMAP
F8
50
50
50
50
ENDCHAR
STARTCHAR C228
ENCODING 228
SWIDTH 576 0
DWIDTH 5 0
BBX 3 7 1 2
BITMAP
E0
80
40
20
40
80
E0
ENDCHAR
STARTCHAR C229
ENCODING 229
SWIDTH 576 0
DWIDTH 5 0
BBX 4 5 0 2
BITMAP
70
A0
A0
A0
40
ENDCHAR
STARTCHAR C230
ENCODING 230
SWIDTH 576 0
DWIDTH 5 0
BBX 4 8 0 0
BITMAP
50
50
50
50
50
60
40
80
ENDCHAR
STARTCHAR C231
ENCODING 231
SWIDTH 576 0
DWIDTH 5 0
BBX 4 6 0 2
BITMAP
50
A0
20
20
20
20
ENDCHAR
STARTCHAR C232
ENCODING 232
SWIDTH 576 0
DWIDTH 5 0
BBX 5 8 0 1
BITMAP
F8
20
70
88
88
70
20
F8
ENDCHAR
STARTCHAR C233
ENCODING 233
SWIDTH 576 0
DWIDTH 5 0
BBX 4 7 0 2
BITMAP
60
90
90
F0
90
90
60
ENDCHAR
STARTCHAR C234
ENCODING 234
SWIDTH 576 0
DWIDTH 5 0
BBX 5 6 0 2
BITMAP
70
88
88
50
50
D8
ENDCHAR
STARTCHAR C235
ENCODING 235
SWIDTH 576 0
DWIDTH 5 0
BBX 4 7 0 2
BITMAP
60
80
40
60
90
90
60
ENDCHAR
STARTCHAR C236
ENCODING 236
SWIDTH 576 0
DWIDTH 5 0
BBX 5 5 0 2
BITMAP
70
A8
A8
A8
70
ENDCHAR
STARTCHAR C237
ENCODING 237
SWIDTH 576 0
DWIDTH 5 0
BBX 5 9 0 0
BITMAP
08
08
70
B8
A8
E8
70
80
80
ENDCHAR
STARTCHAR C238
ENCODING 238
SWIDTH 576 0
DWIDTH 5 0
BBX 4 9 0 1
BITMAP
30
40
80
80
E0
80
80
40
30
ENDCHAR
STARTCHAR C239
ENCODING 239
SWIDTH 576 0
DWIDTH 5 0
BBX 4 8 0 1
BITMAP
60
90
90
90
90
90
90
90
ENDCHAR
STARTCHAR C240
ENCODING 240
SWIDTH 576 0
DWIDTH 5 0
BBX 4 5 0 3
BITMAP
F0
00
F0
00
F0
ENDCHAR
STARTCHAR C241
ENCODING 241
SWIDTH 576 0
DWIDTH 5 0
BBX 3 5 1 4
BITMAP
40
E0
40
00
E0
ENDCHAR
STARTCHAR C242
ENCODING 242
SWIDTH 576 0
DWIDTH 5 0
BBX 4 7 0 2
BITMAP
40
20
10
20
40
00
F0
ENDCHAR
STARTCHAR C243
ENCODING 243
SWIDTH 576 0
DWIDTH 5 0
BBX 3 7 1 2
BITMAP
20
40
80
40
20
00
E0
ENDCHAR
STARTCHAR C244
ENCODING 244
SWIDTH 576 0
DWIDTH 5 0
BBX 3 8 1 1
BITMAP
40
A0
A0
80
80
80
80
80
ENDCHAR
STARTCHAR C245
ENCODING 245
SWIDTH 576 0
DWIDTH 5 0
BBX 3 8 0 1
BITMAP
20
20
20
20
20
A0
A0
40
ENDCHAR
STARTCHAR C246
ENCODING 246
SWIDTH 576 0
DWIDTH 5 0
BBX 3 7 0 2
BITMAP
40
40
00
E0
00
40
40
ENDCHAR
STARTCHAR C247
ENCODING 247
SWIDTH 576 0
DWIDTH 5 0
BBX 4 5 0 3
BITMAP
50
A0
00
50
A0
ENDCHAR
STARTCHAR C248
ENCODING 248
SWIDTH 576 0
DWIDTH 5 0
BBX 3 4 1 6
BITMAP
E0
40
A0
40
ENDCHAR
STARTCHAR C249
ENCODING 249
SWIDTH 576 0
DWIDTH 5 0
BBX 2 2 1 3
BITMAP
C0
C0
ENDCHAR
STARTCHAR C250
ENCODING 250
SWIDTH 576 0
DWIDTH 5 0
BBX 2 1 1 3
BITMAP
C0
ENDCHAR
STARTCHAR C251
ENCODING 251
SWIDTH 576 0
DWIDTH 5 0
BBX 5 10 0 0
BITMAP
38
20
20
20
20
20
20
A0
60
20
ENDCHAR
STARTCHAR C252
ENCODING 252
SWIDTH 576 0
DWIDTH 5 0
BBX 4 4 0 3
BITMAP
A0
D0
90
90
ENDCHAR
STARTCHAR C253
ENCODING 253
SWIDTH 576 0
DWIDTH 5 0
BBX 3 4 0 3
BITMAP
C0
20
40
E0
ENDCHAR
STARTCHAR C254
ENCODING 254
SWIDTH 576 0
DWIDTH 5 0
BBX 3 4 0 2
BITMAP
E0
E0
E0
E0
ENDCHAR
STARTCHAR C255
ENCODING 255
SWIDTH 576 0
DWIDTH 5 0
BBX 1 1 4 0
BITMAP
00
ENDCHAR
ENDFONT
